<?xml version="1.0" standalone="no"?>
<!DOCTYPE svg PUBLIC "-//W3C//DTD SVG 20010904//EN"
 "http://www.w3.org/TR/2001/REC-SVG-20010904/DTD/svg10.dtd">
<svg version="1.0" xmlns="http://www.w3.org/2000/svg"
 width="267.000000pt" height="262.000000pt" viewBox="0 0 267.000000 262.000000"
 preserveAspectRatio="xMidYMid meet">

<g transform="translate(0.000000,262.000000) scale(0.100000,-0.100000)"
fill="#000000" stroke="none">
<path d="M1380 2215 l0 -125 -55 0 -55 0 0 120 c0 68 -4 120 -9 120 -5 0 -56
-29 -113 -65 -100 -63 -105 -65 -170 -65 -37 0 -70 5 -73 10 -10 15 -45 12
-51 -5 -10 -25 14 -47 37 -34 11 5 41 9 67 7 l47 -3 -115 -74 c-63 -40 -161
-103 -217 -139 l-103 -66 0 -103 0 -103 -91 0 c-50 0 -100 5 -111 11 -16 9
-24 7 -36 -5 -15 -15 -15 -17 1 -33 14 -15 21 -15 37 -5 12 7 56 12 110 12
l90 0 0 -44 c0 -44 -12 -66 -25 -46 -9 15 -42 12 -48 -4 -3 -8 0 -22 7 -31 10
-14 17 -15 34 -6 11 6 23 11 27 11 3 0 4 -114 3 -252 l-3 -253 -101 -3 c-81
-2 -104 0 -114 13 -16 19 -34 19 -54 -1 -12 -12 -13 -20 -6 -35 12 -22 42 -25
58 -6 7 8 43 12 114 12 l103 0 3 -148 3 -147 42 -28 42 -27 -150 -3 c-96 -2
-151 1 -153 8 -5 15 -48 12 -61 -4 -9 -11 -10 -20 -1 -35 13 -25 42 -27 61 -5
11 13 38 15 183 12 l171 -3 65 -45 65 -45 -125 -5 c-96 -4 -130 -2 -147 8 -27
17 -43 8 -43 -24 0 -17 5 -24 19 -24 11 0 23 5 26 10 4 6 68 10 159 10 l152 0
195 -125 194 -125 5 48 5 47 50 0 50 0 3 -47 c2 -27 6 -48 10 -47 4 0 129 78
277 174 149 96 305 196 348 222 l77 48 0 71 c0 49 4 73 13 76 14 5 198 2 242
-3 22 -3 30 0 33 14 5 23 -24 33 -51 18 -14 -7 -61 -11 -127 -9 l-105 3 0 50
c0 47 1 50 28 53 16 2 38 -3 50 -11 29 -19 47 -11 47 20 0 23 -3 25 -27 18
-69 -17 -103 -18 -103 -1 0 14 -23 16 -195 16 l-195 0 0 -35 c0 -39 -3 -43
-105 -112 -69 -47 -70 -49 -73 -97 -2 -35 2 -53 14 -68 24 -26 7 -53 -32 -53
-23 0 -30 5 -32 23 -2 13 2 29 8 37 12 14 17 71 7 81 -3 3 -28 -9 -56 -27
l-50 -33 -3 -111 -3 -110 -44 -3 c-28 -2 -47 1 -52 10 -5 7 -9 61 -9 119 l0
107 -35 16 c-19 9 -38 18 -42 19 -16 4 -15 -84 1 -108 24 -36 20 -64 -10 -77
-22 -11 -28 -10 -40 7 -18 24 -18 40 1 59 10 10 15 35 15 79 0 65 0 65 -42 97
l-43 31 -3 -47 c-2 -31 2 -52 12 -63 34 -38 5 -83 -39 -63 -28 13 -33 43 -10
66 9 9 15 34 15 65 0 50 -1 52 -50 87 l-49 35 -3 107 -3 107 -45 3 c-39 3 -49
-1 -75 -28 -26 -28 -34 -30 -97 -30 -37 0 -68 -4 -68 -9 0 -15 -31 -21 -51
-10 -29 15 -22 63 10 67 13 2 28 -1 34 -7 6 -6 41 -11 77 -11 58 0 70 3 90 25
17 18 35 25 74 27 l51 3 3 38 3 37 -85 0 c-67 0 -87 -3 -94 -16 -5 -9 -18 -14
-33 -12 -20 2 -24 9 -24 38 0 29 4 36 23 38 14 2 29 -3 36 -13 9 -13 27 -15
91 -13 l80 3 3 93 3 92 -102 0 c-79 0 -106 -4 -120 -16 -24 -21 -59 -3 -59 31
0 33 31 49 56 30 14 -10 49 -14 122 -15 l102 0 0 43 0 42 105 65 104 65 1 88
c0 48 -4 87 -9 87 -13 0 -23 34 -15 53 8 22 42 31 59 17 17 -14 20 -56 5 -65
-5 -3 -10 -40 -10 -81 l0 -75 40 23 39 23 3 125 3 125 50 0 50 0 5 -123 5
-122 45 -30 45 -30 3 72 c2 41 -2 82 -9 94 -14 27 -9 54 14 68 37 24 75 -35
43 -67 -12 -12 -16 -37 -16 -104 l0 -88 95 -62 94 -63 3 -107 3 -108 192 -3
193 -2 2 192 3 193 132 3 c107 2 137 0 156 -13 22 -14 26 -14 37 0 7 8 10 22
6 30 -6 17 -41 20 -51 5 -7 -11 -242 -14 -269 -4 -11 4 -16 19 -16 50 l0 44
233 0 c169 0 236 -3 245 -12 10 -9 16 -9 28 4 24 24 11 53 -19 42 -12 -4 -134
-10 -271 -11 l-249 -4 -63 42 c-35 23 -64 45 -64 50 0 13 444 11 456 -1 15
-15 44 -1 44 21 0 24 -27 36 -43 20 -8 -8 -89 -11 -264 -11 l-253 0 -165 108
c-245 159 -312 202 -319 202 -3 0 -6 -56 -6 -125z m-1043 -1189 c-4 -9 -11
-16 -17 -16 -17 0 -24 31 -9 41 18 11 34 -5 26 -25z m3 -364 c0 -24 -8 -32
-26 -25 -22 8 -17 43 6 43 13 0 20 -7 20 -18z m1034 -168 c9 -22 7 -94 -1 -95
-5 0 -26 -1 -47 -2 -37 -2 -40 0 -49 32 -4 19 -6 45 -3 58 6 20 13 23 50 23
31 0 46 -5 50 -16z"/>
<path d="M1160 1961 c0 -6 5 -13 10 -16 6 -3 10 1 10 9 0 9 -4 16 -10 16 -5 0
-10 -4 -10 -9z"/>
<path d="M1482 1958 c6 -18 28 -21 28 -4 0 9 -7 16 -16 16 -9 0 -14 -5 -12
-12z"/>
<path d="M690 1515 c0 -8 7 -15 15 -15 8 0 15 7 15 15 0 8 -7 15 -15 15 -8 0
-15 -7 -15 -15z"/>
<path d="M1227 1437 l-97 -60 0 -118 0 -118 70 -45 c132 -86 115 -85 222 -17
l93 58 3 64 c2 35 1 91 -3 125 l-6 60 -57 35 c-31 18 -72 44 -92 56 l-35 21
-98 -61z m133 -67 c11 -6 22 -26 26 -45 3 -19 10 -38 15 -41 5 -3 9 -27 9 -54
0 -46 -2 -49 -45 -74 l-45 -27 -40 26 c-39 24 -40 27 -40 80 0 29 5 57 10 60
6 3 10 15 10 26 0 44 57 72 100 49z"/>
<path d="M1302 1338 c-23 -23 -13 -38 23 -38 22 0 35 5 35 13 0 16 -20 37 -35
37 -6 0 -16 -5 -23 -12z"/>
<path d="M1315 1249 c-3 -9 -2 -26 3 -39 l9 -24 7 29 c8 30 -9 60 -19 34z"/>
<path d="M734 1306 c-8 -22 3 -33 18 -18 9 9 9 15 0 24 -9 9 -13 7 -18 -6z"/>
<path d="M610 1145 c0 -8 7 -15 15 -15 8 0 15 7 15 15 0 8 -7 15 -15 15 -8 0
-15 -7 -15 -15z"/>
<path d="M1045 761 c-7 -12 12 -24 25 -16 11 7 4 25 -10 25 -5 0 -11 -4 -15
-9z"/>
<path d="M1490 705 c0 -10 7 -15 18 -13 21 4 19 22 -2 26 -10 2 -16 -3 -16
-13z"/>
<path d="M1155 661 c-7 -12 12 -24 25 -16 11 7 4 25 -10 25 -5 0 -11 -4 -15
-9z"/>
</g>
</svg>
