<?xml version="1.0" standalone="no"?>
<!DOCTYPE svg PUBLIC "-//W3C//DTD SVG 20010904//EN"
 "http://www.w3.org/TR/2001/REC-SVG-20010904/DTD/svg10.dtd">
<svg version="1.0" xmlns="http://www.w3.org/2000/svg"
 width="501.000000pt" height="613.000000pt" viewBox="0 0 501.000000 613.000000"
 preserveAspectRatio="xMidYMid meet">

<g transform="translate(0.000000,613.000000) scale(0.100000,-0.100000)"
fill="#000000" stroke="none">
<path d="M2450 5757 c-580 -285 -1258 -514 -1880 -633 l-200 -39 0 -695 c0
-382 -3 -902 -6 -1155 -7 -507 0 -648 41 -853 67 -330 208 -611 465 -925 137
-168 428 -431 710 -642 234 -175 881 -597 941 -612 14 -4 327 177 428 246 14
10 73 50 131 88 234 155 565 402 714 533 515 454 777 869 869 1375 21 118 21
136 25 1377 l3 1257 -23 5 c-13 3 -106 21 -208 41 -255 50 -405 87 -615 150
-260 79 -560 184 -670 235 -11 5 -63 26 -115 46 -52 20 -187 79 -300 132 -113
52 -214 96 -225 98 -11 2 -49 -11 -85 -29z m478 -1409 l3 -87 92 -3 92 -3 0
-98 0 -97 93 0 92 0 0 -345 0 -344 93 -3 92 -3 0 -415 0 -415 -92 -3 -93 -3 0
-89 0 -90 -90 0 -89 0 -3 -92 -3 -92 -30 -1 c-16 -1 -60 -2 -97 -3 l-68 -2 0
-70 c0 -39 -3 -69 -7 -69 -23 4 -30 -3 -25 -26 4 -25 3 -25 -64 -25 -115 0
-113 2 -116 -98 l-3 -86 -152 -4 -152 -4 -3 68 -3 69 -87 3 -88 3 0 59 0 60
-50 0 -49 0 -3 63 -3 62 -87 3 -88 3 0 89 0 89 -92 3 -93 3 -3 88 -3 87 -94 0
-95 0 0 255 0 255 95 0 95 0 0 75 0 75 90 0 90 0 0 90 0 91 -87 -3 c-80 -3
-88 -5 -89 -23 0 -11 -1 -48 -2 -82 l-2 -63 -95 0 -95 0 0 85 0 85 95 0 95 0
0 345 0 345 95 0 95 0 0 100 0 100 95 0 95 0 0 90 0 90 398 -2 397 -3 3 -87z"/>
<path d="M2140 4150 l0 -89 -92 -3 -93 -3 -3 -262 -2 -263 575 0 575 0 0 265
0 265 -90 0 -90 0 0 90 0 90 -390 0 -390 0 0 -90z"/>
<path d="M2434 3045 c-63 -28 -124 -127 -124 -202 0 -45 25 -99 66 -143 l44
-47 0 -157 0 -156 115 0 115 0 0 156 0 157 41 44 c22 24 47 60 55 78 40 96 -9
215 -107 266 -46 23 -157 25 -205 4z"/>
</g>
</svg>
